<?xml version="1.0" encoding="utf-8"?>
<!-- Generator: Adobe Illustrator 17.0.0, SVG Export Plug-In . SVG Version: 6.00 Build 0)  -->
<!DOCTYPE svg PUBLIC "-//W3C//DTD SVG 1.1//EN" "http://www.w3.org/Graphics/SVG/1.1/DTD/svg11.dtd">
<svg version="1.1" id="Layer_1" xmlns="http://www.w3.org/2000/svg" xmlns:xlink="http://www.w3.org/1999/xlink" x="0px" y="0px"
	 width="360px" height="838.182px" viewBox="0 0 360 838.182" enable-background="new 0 0 360 838.182" xml:space="preserve">
<g>
	<path fill="none" stroke="#FFFFFF" stroke-width="3" stroke-miterlimit="10" d="M175.355,96.635h3.815v41.714
		c-26.842,12.357-45.534,39.513-45.529,70.954v75.933l-9.557,0c-7.418-0.005-13.439,6.016-13.439,13.429
		c0,7.423,6.021,13.434,13.439,13.439l9.557,0v18.898l-9.557,0c-7.423,0-13.439,6.016-13.439,13.429
		c0,7.423,6.016,13.439,13.434,13.444h9.557v18.898h-9.557c-7.418,0.005-13.434,6.021-13.439,13.439
		c0,7.413,6.021,13.434,13.434,13.434h9.557l0.01,223.614c0,0,3.882,155.387-80.511,179.724h69.438h49.024h69.438
		c-82.351-23.749-80.635-172.27-80.511-179.446c0.005-0.18-0.005-0.273-0.005-0.273V403.662h18.661l-0.005,162.945
		c0,30.487,24.806,55.282,55.282,55.282c30.476,0,55.282-24.796,55.277-55.287v-162.96l23.646-0.005
		c7.423,0,13.434-6.021,13.434-13.434c0.005-7.418-6.011-13.434-13.429-13.439h-23.651v-18.898h23.651
		c7.423,0,13.434-6.021,13.434-13.434c0-7.423-6.011-13.434-13.434-13.434h-23.651v-18.909h23.651
		c7.418-0.005,13.429-6.016,13.429-13.439c0-7.413-6.011-13.434-13.429-13.429h-23.651v-75.933
		c0.005-43.039-35.008-78.052-78.042-78.052c-1.897,0-3.789,0.067-5.655,0.201V96.619h6.341l0-58.293l-37.018,0.005V96.635z
		 M160.509,331.012v-18.898h18.661v18.898H160.509z M160.509,376.779V357.88h18.661v18.898H160.509z M262.866,403.657l0,162.95
		c0.005,15.666-12.748,28.42-28.409,28.42c-15.666-0.005-28.414-12.753-28.409-28.42l-0.005-162.955L262.866,403.657z
		 M262.866,357.88v18.898h-56.829V357.88H262.866z M262.867,312.114l0.005,18.903h-56.829v-18.898L262.867,312.114z
		 M211.688,158.124c28.219,0,51.184,22.966,51.179,51.189v75.933h-56.829V158.443C207.888,158.232,209.77,158.124,211.688,158.124z
		 M179.175,169.81v115.431h-18.661v-75.933C160.509,193.425,167.782,179.203,179.175,169.81z"/>
</g>
</svg>
